# xmcd CD database file
#
# Track frame offsets:
#	150
#	16063
#	33262
#	60040
#	82519
#	113902
#	127821
#	161484
#
# Disc length: 2450 seconds
#
# Revision: 0
# Processed by: cddbd v1.5.2PL0 Copyright (c) Steve Scherf et al.
# Submitted via: CDex 1.51
#
DISCID=44099008
DTITLE=Bob Degen - Chartreuse with Harvie Swartz
DYEAR=1977
DGENRE=Jazz
TTITLE0=Rapids
TTITLE1=In memory of G.K.
TTITLE2=Confirmation
TTITLE3=Woven thoughts
TTITLE4=Sequoia song
TTITLE5=Ode to Cologne
TTITLE6=Chartreuse
TTITLE7=Ceremonious revival
EXTD=YEAR: 1977
EXTT0=
EXTT1=
EXTT2=
EXTT3=
EXTT4=
EXTT5=
EXTT6=
EXTT7=
PLAYORDER=
